<?xml version="1.0" standalone="no"?>
<!DOCTYPE svg PUBLIC "-//W3C//DTD SVG 20010904//EN"
 "http://www.w3.org/TR/2001/REC-SVG-20010904/DTD/svg10.dtd">
<svg version="1.0" xmlns="http://www.w3.org/2000/svg"
 width="300.000000pt" height="300.000000pt" viewBox="0 0 300.000000 300.000000"
 preserveAspectRatio="xMidYMid meet">
<metadata>
Created by potrace 1.11, written by Peter Selinger 2001-2013
</metadata>
<g transform="translate(0.000000,300.000000) scale(0.100000,-0.100000)"
fill="#000000" stroke="none">
<path d="M0 1500 l0 -1500 1500 0 1500 0 0 1500 0 1500 -1500 0 -1500 0 0
-1500z m928 725 c121 -29 204 -89 243 -178 20 -45 23 -68 23 -182 1 -120 -1
-134 -25 -185 -34 -70 -89 -133 -145 -166 -25 -15 -43 -32 -41 -38 3 -7 73
-132 156 -279 83 -147 151 -274 151 -282 0 -12 -19 -15 -112 -15 l-113 0 -155
275 -154 275 -93 0 -93 0 0 -275 0 -275 -100 0 -100 0 0 670 0 670 248 0 c183
0 263 -4 310 -15z m857 -81 c10 -41 22 -77 27 -80 4 -3 8 -18 8 -34 0 -16 5
-32 10 -35 6 -3 10 -17 10 -31 0 -13 4 -32 9 -42 5 -9 21 -64 36 -122 16 -58
32 -109 36 -114 5 -6 9 -22 9 -37 0 -15 5 -31 10 -34 6 -3 10 -17 10 -31 0
-13 4 -32 9 -42 5 -9 21 -64 36 -122 30 -114 37 -127 52 -108 6 7 69 214 139
461 l129 447 142 0 143 0 0 -382 c0 -211 3 -508 7 -661 l6 -277 -100 0 -100 0
-6 257 c-4 141 -7 336 -7 434 0 99 -4 180 -9 184 -5 3 -12 -3 -15 -12 -3 -10
-41 -142 -86 -293 -45 -151 -92 -312 -106 -358 l-25 -83 -121 3 -121 3 -113
384 c-63 211 -115 386 -117 388 -4 4 -17 -579 -17 -774 l0 -133 -102 0 -101 0
6 383 c4 210 7 507 7 660 l0 277 143 0 143 0 19 -76z"/>
<path d="M570 1850 l0 -222 133 4 c152 4 204 21 254 86 25 33 28 47 31 122 4
111 -19 162 -93 200 -44 22 -63 25 -187 28 l-138 4 0 -222z"/>
</g>
</svg>
